# xmcd
#
# Track frame offsets: 
#        150
#        13725
#        26895
#        39677
#        54457
#        67920
#        80529
#        93954
#        106532
#        117465
#        130790
#        144467
#        157582
#        170502
#        181072
#        200475
#        212105
#        223335
#        236835
#        261972
#
# Disc length: 3633 seconds
#
# Revision: 2
# Processed by: cddbd v1.5PL3 Copyright (c) Steve Scherf et al.
# Submitted via: ExactAudioCopy v0.95a5
#
DISCID=190e2f14
DTITLE=Etta James - Her Best
DYEAR=1997
DGENRE=Blues
TTITLE0=At Last
TTITLE1=All I Could Do Is Cry
TTITLE2=If I Can't Have You
TTITLE3=A Sunday Kind Of Love
TTITLE4=My Dearest Darling
TTITLE5=Something's Got A Hold On Me
TTITLE6=Trust In Me
TTITLE7=Next Door To The Blues
TTITLE8=Don't Cry Baby
TTITLE9=Fool That I Am
TTITLE10=Two Sides To Every Story
TTITLE11=Pushover
TTITLE12=Stop The Wedding
TTITLE13=In the Basement, Part One
TTITLE14=Baby, What You Want Me To Do
TTITLE15=I'd Rather Go Blind
TTITLE16=Security
TTITLE17=Loser's Weepers, Part One
TTITLE18=All The Way Down
TTITLE19=Tell Mama
EXTD=
EXTT0=
EXTT1=
EXTT2=
EXTT3=
EXTT4=
EXTT5=
EXTT6=
EXTT7=
EXTT8=
EXTT9=
EXTT10=
EXTT11=
EXTT12=
EXTT13=
EXTT14=
EXTT15=
EXTT16=
EXTT17=
EXTT18=
EXTT19=
PLAYORDER=
